<?xml version="1.0" standalone="no"?>
<!DOCTYPE svg PUBLIC "-//W3C//DTD SVG 20010904//EN"
 "http://www.w3.org/TR/2001/REC-SVG-20010904/DTD/svg10.dtd">
<svg version="1.0" xmlns="http://www.w3.org/2000/svg"
 width="200.000000pt" height="200.000000pt" viewBox="0 0 200.000000 200.000000"
 preserveAspectRatio="xMidYMid meet">
<metadata>
Created by potrace 1.10, written by Peter Selinger 2001-2011
</metadata>
<g transform="translate(0.000000,200.000000) scale(0.100000,-0.100000)"
fill="#ff0000" stroke="none">
<path d="M1177 1658 c-64 -90 -84 -134 -102 -226 -14 -70 -15 -89 -4 -139 l14
-58 5 115 c5 99 10 124 35 180 l30 65 5 -110 c7 -124 10 -132 133 -345 36 -63
69 -128 73 -143 l7 -29 -31 16 c-48 25 -130 21 -187 -9 l-48 -26 -54 27 c-65
31 -133 35 -181 10 l-33 -17 16 31 c9 16 40 53 70 82 62 59 87 110 78 162 -7
43 2 45 39 9 20 -19 28 -22 28 -12 0 17 -39 56 -85 85 -29 19 -29 19 -20 -1 5
-11 11 -51 13 -88 l4 -68 -69 -68 c-38 -37 -79 -87 -91 -112 -24 -50 -48 -147
-29 -115 25 40 61 77 88 91 53 28 152 12 200 -31 14 -13 22 -11 75 17 50 26
67 30 111 27 60 -5 111 -38 136 -90 21 -41 21 -23 2 51 -21 82 -48 140 -125
271 -38 63 -76 142 -86 174 -21 74 -15 195 13 279 11 31 19 57 17 57 -2 0 -23
-28 -47 -62z"/>
<path d="M1335 908 c-9 -24 -91 -64 -178 -87 -96 -26 -123 -40 -164 -83 -39
-40 -53 -76 -53 -132 0 -41 -2 -44 -31 -50 -17 -3 -44 -6 -59 -6 -15 0 -38 -9
-51 -21 l-24 -20 54 6 c94 11 237 82 301 149 33 37 19 43 -19 8 -32 -29 -123
-82 -141 -82 -16 0 -11 41 9 86 23 52 70 87 141 109 30 9 81 24 113 34 69 21
71 16 26 -72 -60 -119 -108 -175 -173 -202 -45 -19 -60 -12 -25 12 34 23 109
104 109 117 0 7 -24 -11 -54 -40 -30 -29 -74 -63 -98 -75 -55 -27 -55 -28 -38
-39 25 -16 89 -11 128 9 46 23 109 90 147 155 32 54 98 226 91 234 -3 3 -8 -2
-11 -10z"/>
<path d="M820 300 c0 -103 1 -110 20 -110 11 0 20 5 20 12 0 9 3 9 12 0 22
-22 75 -14 97 14 54 69 -15 164 -90 124 -17 -10 -19 -7 -19 30 0 33 -3 40 -20
40 -19 0 -20 -7 -20 -110z m118 -27 c4 -42 -29 -64 -59 -37 -35 32 -16 77 31
72 20 -2 26 -9 28 -35z"/>
<path d="M540 290 l0 -100 26 0 c25 0 26 1 21 53 -3 28 -9 68 -12 87 -4 19 -4
32 0 27 5 -4 9 -15 10 -25 1 -23 62 -122 74 -122 5 0 23 24 40 53 l31 52 0
-62 c0 -56 2 -63 20 -63 19 0 20 7 20 100 0 93 -1 100 -20 100 -13 0 -29 -18
-52 -60 -18 -33 -35 -60 -38 -60 -3 0 -21 27 -39 60 -27 46 -40 60 -58 60 -22
0 -23 -2 -23 -100z m210 43 c0 -19 -3 -24 -10 -17 -6 6 -8 18 -4 27 9 24 14
21 14 -10z"/>
<path d="M1148 290 c-3 -97 -2 -100 19 -100 20 0 22 6 25 62 l3 63 49 -63 c29
-36 57 -62 67 -62 17 0 19 9 19 100 0 93 -1 100 -20 100 -16 0 -19 -8 -22 -60
l-3 -60 -48 60 c-28 34 -57 60 -67 60 -17 0 -19 -11 -22 -100z m53 48 c6 -13
8 -20 4 -16 -5 4 -14 3 -22 -3 -10 -9 -13 -7 -13 8 0 17 8 33 16 33 2 0 9 -10
15 -22z m109 -94 c0 -22 -2 -25 -15 -14 -12 10 -13 16 -4 26 16 20 19 18 19
-12z"/>
<path d="M1570 360 c0 -11 -7 -20 -15 -20 -8 0 -15 -7 -15 -15 0 -8 7 -15 15
-15 11 0 15 -12 15 -48 0 -57 12 -72 58 -72 26 0 33 4 30 17 -2 10 -12 18 -23
18 -16 0 -21 8 -23 43 -3 37 -1 42 17 42 12 0 21 7 21 15 0 8 -9 15 -20 15
-13 0 -20 7 -20 20 0 13 -7 20 -20 20 -13 0 -20 -7 -20 -20z m35 -29 c7 -12
-12 -24 -25 -16 -11 7 -4 25 10 25 5 0 11 -4 15 -9z"/>
<path d="M1020 270 c0 -77 1 -80 23 -80 20 0 23 4 19 30 -7 47 5 79 33 86 16
4 25 13 25 25 0 21 -12 24 -41 9 -13 -7 -19 -7 -19 0 0 5 -9 10 -20 10 -18 0
-20 -7 -20 -80z m40 36 c0 -3 -4 -8 -10 -11 -5 -3 -10 -1 -10 4 0 6 5 11 10
11 6 0 10 -2 10 -4z"/>
<path d="M1395 325 c-35 -34 -34 -86 1 -114 45 -35 144 -22 113 16 -8 9 -16
10 -31 2 -15 -8 -27 -8 -44 0 -44 20 -28 33 36 29 57 -3 60 -2 60 20 0 33 -43
72 -80 72 -19 0 -40 -9 -55 -25z m76 -15 c31 -17 22 -30 -21 -30 -42 0 -52 12
-22 29 21 13 20 13 43 1z"/>
</g>
</svg>
